# xmcd
#
# Track frame offsets:
#	150
#	21847
#	36315
#	56655
#	79087
#	101507
#	127925
#	146882
#	164627
#	181762
#
# Disc length: 2669 seconds
#
# Revision: 1
# Processed by: cddbd v1.5.1PL0 Copyright (c) Steve Scherf et al.
# Submitted via: CDex 1.50Beta5
#
DISCID=850a6b0a
DTITLE=MASTER OF THE GAME - MASTER CHAPTER 12
DYEAR=1900
DGENRE=
TTITLE0=CHAPTER 12 unit 1
TTITLE1=CHAPTER 12 unit 2
TTITLE2=CHAPTER 12 unit 3
TTITLE3=CHAPTER 12 unit 4
TTITLE4=CHAPTER 12 unit 5
TTITLE5=CHAPTER 12 unit 6
TTITLE6=CHAPTER 12 unit 7
TTITLE7=CHAPTER 12 unit 8
TTITLE8=CHAPTER 12 unit 9
TTITLE9=MASTER CHAPTER 12
EXTD=
EXTT0=
EXTT1=
EXTT2=
EXTT3=
EXTT4=
EXTT5=
EXTT6=
EXTT7=
EXTT8=
EXTT9=
PLAYORDER=
